<svg id="e7ynrfpblO01" xmlns="http://www.w3.org/2000/svg" xmlns:xlink="http://www.w3.org/1999/xlink" viewBox="0 0 126 20" shape-rendering="geometricPrecision" text-rendering="geometricPrecision" project-id="dced994b4fa3492c8f85b6ffb73b679c" export-id="f6330f74bed9454f9e6d8b04bd883879" cached="false"><path d="M126.801,20v-3.168h-2.412l-1.244-1.372-1.248,1.372h-7.956v-6.4h-2.568l3.188-7.212h3.072l1.096,2.468v-2.468h3.8l.66,1.86.664-1.86h2.948v-3.22h-20v20h20Zm-2.008-3.972h2.008l-2.656-2.816l2.656-2.784h-1.976l-1.64,1.792-1.624-1.792h-2.008l2.64,2.8-2.64,2.8h1.952l1.648-1.808l1.64,1.808Zm.472-2.812l1.536,1.636v-3.256l-1.536,1.62Zm-8.948,1.52v-.872h3.16v-1.264h-3.16v-.872h3.24v-1.296h-4.764v5.596h4.764v-1.296h-3.24v.004Zm8.972-5.116h1.512v-5.596h-2.352l-1.256,3.488-1.248-3.488h-2.392v5.596h1.512v-3.916l1.44,3.916h1.344l1.44-3.928v3.928Zm-7.452,0h1.72l-2.472-5.596h-1.964L112.649,9.62h1.68l.464-1.12h2.576l.468,1.12Zm-1-2.376h-1.52l.76-1.832.76,1.832Z" fill="#006fcf"/><path d="M62.4165,18.8167v-1.1246c0-.4213-.2537-.7026-.6871-.7057-.2275-.004-.4636.0675-.6287.3172-.1228-.1984-.3171-.3172-.5894-.3172-.1913,0-.3926.0519-.5376.2618v-.2165h-.3604v1.785h.3629v-1.0234c0-.3105.1878-.4741.452-.4741.2587,0,.4037.1676.4037.4706v1.0269h.3629v-1.0234c0-.3105.1953-.4741.4521-.4741.2652,0,.4077.1676.4077.4706v1.0269h.3619Zm5.8229-1.785h-.6499v-.5426h-.3624v.5426h-.378v.3242h.378v.8446c0,.4153.1455.6615.605.6615.1692,0,.3615-.0514.4863-.138l-.1123-.3176c-.1152.0665-.2426.1007-.3438.1007-.1943,0-.2728-.1193-.2728-.299v-.8522h.6499v-.3242Zm3.3146-.0453c-.2235,0-.3846.1047-.4863.2618v-.2165h-.3538v1.785h.3594v-1.0042c0-.295.1409-.4863.3951-.4863.0795,0,.1611.0111.2436.0453l.1183-.3362c-.0845-.0348-.1968-.0489-.2763-.0489Zm-5.0115.1873c-.1857-.1243-.4444-.1873-.7288-.1873-.4531,0-.7294.2135-.7294.5683c0,.2915.2029.4671.6025.522l.1837.0272c.213.0292.3292.1042.3292.2044c0,.1389-.158.229-.4223.229-.2808,0-.4636-.0856-.5954-.1868l-.1828.2799c.2653.1943.5829.2316.7737.2316.5154,0,.7998-.2391.7998-.5794c0-.3131-.2159-.4742-.6095-.53l-.1828-.0262c-.1676-.0232-.3181-.0745-.3181-.1943c0-.1314.1415-.22.3559-.22.2285,0,.4485.0851.5567.153l.1676-.2914Zm5.4197.75c0,.5426.3624.9383.9388.9383.2688,0,.447-.0589.6413-.2135l-.1868-.2803c-.146.1047-.298.1615-.4666.1615-.3106-.0035-.5532-.2471-.5532-.606c0-.3584.2426-.6005.5532-.6045.1686,0,.3206.0558.4666.161l.1868-.2803c-.1943-.1541-.3725-.2135-.6413-.2135-.5764,0-.9388.3957-.9388.9373Zm-2.5123-.9373c-.5219,0-.8819.3771-.8819.9343c0,.5678.3741.9413.9081.9413.2698,0,.516-.0675.7329-.2507l-.1903-.2648c-.1505.1198-.3412.1868-.5194.1868-.2502,0-.5044-.1415-.5492-.4636h1.3334c.0035-.0479.0081-.0967.0081-.149-.0046-.5572-.3403-.9343-.8417-.9343Zm-.0065.3328c.2653,0,.445.1716.4701.452h-.9634c.0322-.2618.2044-.452.4933-.452Zm-4.8368.6045v-.892h-.3584v.2165c-.1238-.1606-.3241-.2618-.5793-.2618-.5004,0-.8814.3927-.8814.9373c0,.5461.381.9383.8814.9383.2552,0,.4555-.1007.5793-.2613v.216h.3584v-.893Zm-1.4466,0c0-.3363.2134-.6045.5587-.6045.3277,0,.5451.2577.5451.6045c0,.3488-.2174.606-.5451.606-.3453,0-.5587-.2688-.5587-.606Zm13.7905-.9373c-.2235,0-.3846.1047-.4852.2618v-.2165h-.3559v1.785h.3609v-1.0042c0-.295.1404-.4863.3951-.4863.0786,0,.1606.0111.2426.0453l.1204-.3362c-.0866-.0348-.1994-.0489-.2779-.0489Zm2.8797,1.572c.0247,0,.0478.0051.069.0146.0226.0096.0418.0212.0574.0378.0171.0161.0287.0347.0397.0559.0091.0221.0126.0437.0126.0694c0,.0242-.0035.0468-.0126.0675-.011.0221-.0226.0417-.0397.0563-.0156.0172-.0348.0307-.0574.0383-.0212.0101-.0443.0141-.069.0141-.0267,0-.0498-.004-.0725-.0141-.0211-.0076-.0412-.0211-.0573-.0383-.0156-.0146-.0302-.0342-.0378-.0563-.0106-.0207-.0151-.0433-.0151-.0675c0-.0257.0045-.0473.0151-.0694.0076-.0212.0222-.0398.0378-.0559.0161-.0166.0362-.0282.0573-.0378.0227-.0095.0458-.0146.0725-.0146Zm0,.3156c.0187,0,.0368-.004.0529-.012.0161-.0066.0307-.0162.0438-.0282.012-.0131.0226-.0282.0287-.0443.0075-.0166.0105-.0337.0105-.0534c0-.0201-.003-.0372-.0105-.0549-.0061-.0161-.0167-.0312-.0287-.0432-.0131-.0131-.0277-.0222-.0438-.0292-.0161-.0076-.0342-.0111-.0529-.0111-.0196,0-.0382.0035-.0559.0111-.0166.007-.0307.0161-.0437.0292-.0116.012-.0222.0271-.0292.0432-.0076.0177-.0111.0348-.0111.0549c0,.0197.0035.0368.0111.0534.007.0161.0176.0312.0292.0443.013.012.0271.0216.0437.0282.0177.008.0363.012.0559.012Zm.0091-.2209c.0221,0,.0382.004.0498.0136.0116.01.0171.0231.0171.0382c0,.0141-.0055.0257-.0141.0337-.009.0091-.0216.0146-.0392.0172l.0533.0609h-.0417l-.0494-.0609h-.0161v.0609h-.0347v-.1636h.075Zm-.0403.0302v.0453h.0403c.0096,0,.0166-.0041.0221-.0071.0066-.0035.0091-.009.0091-.0166c0-.007-.0025-.0126-.0091-.0151-.0055-.004-.0125-.0065-.0221-.0065h-.0403Zm-4.2217-.7596v-.892h-.3604v.2165c-.1223-.1606-.3246-.2618-.5788-.2618-.5019,0-.8824.3927-.8824.9373c0,.5461.3805.9383.8824.9383.2542,0,.4565-.1007.5788-.2613v.216h.3604v-.893Zm-1.4481,0c0-.3363.2134-.6045.5572-.6045.3297,0,.5456.2577.5456.6045c0,.3488-.2159.606-.5456.606-.3438,0-.5572-.2688-.5572-.606Zm5.0537,0v-1.6092h-.3589v.9337c-.1243-.1606-.3262-.2618-.5799-.2618-.5003,0-.8813.3927-.8813.9373c0,.5461.381.9383.8813.9383.2537,0,.4556-.1007.5799-.2613v.216h.3589v-.893Zm-1.4482,0c0-.3363.2145-.6045.5583-.6045.3276,0,.5446.2577.5446.6045c0,.3488-.217.606-.5446.606-.3438,0-.5583-.2688-.5583-.606Z"/><path d="M72.5932,3.43555h-6.4682v10.56455h6.4682v-10.56455Z" fill="#f37a2b"/><path d="M66.7922,8.71884c0-2.1433,1.0042-4.05254,2.5661-5.28225C68.2167,2.53709,66.7741,2,65.2071,2c-3.7102,0-6.7188,3.00758-6.7188,6.71884c0,3.71026,3.0086,6.71886,6.7188,6.71886c1.567,0,3.0096-.5361,4.1512-1.4366-1.5619-1.2302-2.5661-3.1395-2.5661-5.28226Z" fill="#ea3630"/><path d="M79.588,12.8823v-.2169h.0861v-.0438h-.221v.0438h.0871v.2169h.0478Zm.4304,0v-.2612h-.0665l-.0795.1792-.0775-.1792h-.0685v.2612h.0479v-.1968l.0729.1692h.0504l.0725-.1702v.1978h.0483Z" fill="#fff"/><path d="M80.2309,8.71884c0,3.71026-3.009,6.71886-6.7193,6.71886-1.5665,0-3.0091-.5361-4.1522-1.4366c1.5624-1.2302,2.5671-3.1395,2.5671-5.28226c0-2.1433-1.0047-4.05254-2.5671-5.28225C70.5025,2.53709,71.9451,2,73.5116,2c3.7103,0,6.7193,3.00758,6.7193,6.71884Z" fill="#f9ac22"/><path d="M31.4869,0L0,0v20h31.4869v-20Z" fill="#fff"/><path d="M30.9607,16.75h-30.437262v2.7259h30.437262v-2.7259Z" fill="#f7b600"/><path d="M30.9607,0.525391h-30.437262v2.725949h30.437262v-2.725949Z" fill="#1a1f71"/><path d="M12.7113,6.25424L9.56261,13.7615h-2.05539L5.96203,7.77028c-.08746-.36443-.17493-.51021-.46647-.65598-.46647-.24781-1.23907-.49563-1.90962-.6414l.04373-.21866h3.30904c.42274,0,.80175.27697.88921.75802l.81633,4.35864L10.6559,6.26882h2.0554v-.01458Zm8.0321,5.05836c.0145-1.98256-2.7406-2.0846-2.7114-2.97381c0-.26239.2624-.55394.8163-.62682.277-.02916,1.0496-.05831,1.9096.33527l.3353-1.58892c-.4665-.17492-1.0641-.33527-1.8221-.33527-1.9242,0-3.2653,1.0204-3.2799,2.47813-.0146,1.07872.9621,1.67642,1.6909,2.04082.7581.3644,1.0059.5977,1.0059.9329c0,.5102-.5977.7289-1.1662.7289-.9767.0146-1.5452-.2624-1.9971-.481L15.1749,13.47c.4519.2041,1.2973.3936,2.1574.3936c2.07.0145,3.4111-.9913,3.4111-2.551Zm5.0729,2.4489h1.793L26.0349,6.25424h-1.6618c-.379,0-.6851.21866-.8309.55394L20.6268,13.7615h2.0408l.4081-1.1224h2.4927l.2479,1.1224Zm-2.1721-2.653l1.0204-2.81344.5831,2.81344h-1.6035ZM15.481,6.25424L13.8775,13.7615h-1.9388l1.6035-7.50726h1.9388Z" fill="#1a1f71"/></svg>
