<svg width="181" height="34" viewBox="0 0 181 34" fill="none" xmlns="http://www.w3.org/2000/svg">
<g clip-path="url(#clip0_29_25468)">
<path d="M80.0526 1.5625H79.4209V32.4371H80.0526V1.5625Z" fill="#75787B"/>
<path d="M3.60762 13.0522C4.10263 13.056 4.58765 12.9156 5.00111 12.6489C5.41458 12.3822 5.73787 12.0012 5.92994 11.5541C6.12202 11.1071 6.17424 10.6142 6.07996 10.138C5.98568 9.66187 5.74917 9.22388 5.40042 8.87964C5.05168 8.5354 4.60643 8.30044 4.12117 8.20456C3.63591 8.10868 3.13252 8.1562 2.67487 8.34111C2.21723 8.52602 1.82596 8.83997 1.55072 9.24312C1.27547 9.64627 1.12867 10.1205 1.12892 10.6055C1.12688 11.2519 1.38679 11.8727 1.85155 12.3314C2.31631 12.7902 2.94792 13.0494 3.60762 13.0522Z" fill="#009CDD"/>
<path d="M69.2259 32.2328C69.721 32.2368 70.2061 32.0966 70.6197 31.8299C71.0333 31.5633 71.3567 31.1823 71.5489 30.7352C71.7411 30.2881 71.7934 29.7952 71.6992 29.319C71.6049 28.8427 71.3684 28.4047 71.0196 28.0604C70.6709 27.7161 70.2255 27.4811 69.7402 27.3852C69.2549 27.2893 68.7514 27.3369 68.2937 27.5219C67.8361 27.7069 67.4448 28.0209 67.1696 28.4242C66.8944 28.8274 66.7477 29.3017 66.7481 29.7868C66.7462 30.433 67.006 31.0535 67.4706 31.5121C67.9352 31.9707 68.5665 32.2299 69.2259 32.2328Z" fill="#6D2077"/>
<path d="M36.7382 20.3988V20.5056C36.8505 22.5599 36.468 24.6114 35.6215 26.494C35.147 27.3388 34.4317 28.0299 33.5629 28.4828C32.6941 28.9357 31.7095 29.1307 30.7294 29.0442C30.6965 29.0415 30.6635 29.0415 30.6306 29.0442H30.5854C29.5986 29.1375 28.6056 28.9454 27.7291 28.4916C26.8526 28.0377 26.1311 27.3421 25.6539 26.4907C24.7983 24.5973 24.4142 22.5318 24.5331 20.4645V20.33C24.4128 18.4017 24.7987 16.4753 25.6539 14.7346C26.1306 13.8828 26.8521 13.1869 27.7287 12.7332C28.6054 12.2794 29.5986 12.0878 30.5854 12.182H30.6883C31.676 12.0877 32.6701 12.2795 33.5475 12.7337C34.4249 13.1879 35.1469 13.8844 35.6239 14.737C36.4754 16.4779 36.8589 18.4031 36.7382 20.33V20.3988ZM37.4938 10.9279C37.4801 10.9105 37.4649 10.8943 37.4484 10.8795C35.6307 9.41642 33.3277 8.65871 30.9772 8.75035C30.9292 8.74521 30.8808 8.74329 30.8325 8.7446C28.5474 8.63842 26.3035 9.36728 24.5356 10.7899L24.5331 10.7908V9.39297H24.5374V2.31457C24.5368 2.22049 24.5166 2.12752 24.4779 2.04139C24.4393 1.95525 24.3831 1.87777 24.3128 1.81369C24.1648 1.67895 23.9702 1.60419 23.7682 1.60449H21.2536C21.052 1.60514 20.8581 1.67978 20.7099 1.81369C20.6393 1.87751 20.5829 1.95495 20.5442 2.04114C20.5056 2.12734 20.4855 2.22042 20.4854 2.31457V9.39297H20.4872V24.4224H20.4854V31.4639C20.4861 31.5577 20.5065 31.6503 20.5451 31.7361C20.5837 31.8219 20.6398 31.8991 20.7099 31.963C20.858 32.0981 21.0528 32.1731 21.2552 32.1731H23.7691C23.971 32.173 24.1652 32.0979 24.3128 31.963C24.3839 31.8998 24.4408 31.8228 24.4797 31.7368C24.5187 31.6509 24.5388 31.5579 24.539 31.4639V30.0079C25.35 30.8324 26.3303 31.479 27.4152 31.9049C28.5001 32.3308 29.6648 32.5263 30.8325 32.4785H30.9883C33.3354 32.565 35.6336 31.8061 37.4484 30.3451C38.6592 28.9928 39.5788 27.4149 40.1521 25.7059C40.7254 23.9969 40.9407 22.1921 40.785 20.3997C40.9367 18.6836 40.7224 16.9553 40.1558 15.3247C39.5892 13.6941 38.6827 12.1968 37.4938 10.9279Z" fill="#D00070"/>
<path d="M16.4952 8.6183H12.1827L12.1811 4.33641H12.1793L12.1777 2.26302C12.17 2.07719 12.0875 1.90192 11.9482 1.7755C11.809 1.64908 11.6244 1.58179 11.4347 1.58833H8.84295C8.64924 1.58712 8.46212 1.6571 8.31851 1.78448C8.25046 1.84533 8.19581 1.91917 8.15793 2.00146C8.12004 2.08375 8.0997 2.17275 8.09817 2.26302V6.08207H8.09984V26.1576C8.04206 27.702 8.59139 29.2092 9.63453 30.3683C10.2236 30.9478 10.9282 31.4021 11.7045 31.7028C12.4808 32.0034 13.312 32.144 14.1462 32.1158H15.4019V32.101H16.4952C16.5907 32.1002 16.6851 32.0801 16.7723 32.0418C16.8595 32.0036 16.9376 31.948 17.0019 31.8787C17.1392 31.7324 17.2149 31.5406 17.2138 31.3418V28.8606C17.2144 28.6619 17.1388 28.4703 17.0019 28.3237C16.9379 28.2541 16.8597 28.1984 16.7725 28.1601C16.6852 28.1218 16.5908 28.1018 16.4952 28.1014H14.4897C14.1455 28.0982 13.8038 28.0439 13.4761 27.9405C13.3357 27.8929 13.2022 27.8274 13.0791 27.7459C12.973 27.6803 12.8753 27.6023 12.7882 27.5137C12.3381 26.9627 12.1213 26.2633 12.1827 25.5601V12.618H16.4952C16.5907 12.6173 16.6849 12.5972 16.7721 12.5591C16.8593 12.5209 16.9375 12.4656 17.0019 12.3964C17.1388 12.2496 17.2145 12.0578 17.2138 11.8589V9.37592C17.2142 9.1778 17.1385 8.98679 17.0019 8.84077C16.9379 8.7711 16.8598 8.71531 16.7725 8.677C16.6853 8.63868 16.5908 8.61869 16.4952 8.6183Z" fill="#D00070"/>
<path d="M64.5973 31.1568L61.4516 26.8065L55.1481 17.7879L60.0469 12.69L62.8992 9.73667L63.0725 9.54782C63.1309 9.49958 63.1783 9.43982 63.2115 9.37244C63.2447 9.30506 63.2631 9.23157 63.2654 9.15676C63.2677 9.08196 63.2539 9.00752 63.2248 8.9383C63.1958 8.86908 63.1522 8.80664 63.0969 8.75504C62.9494 8.62006 62.755 8.54497 62.5532 8.54496H59.2771C59.0565 8.57287 58.8504 8.6682 58.6883 8.8174L47.6902 20.3099V2.23058C47.6892 2.13649 47.6688 2.04355 47.6303 1.95737C47.5917 1.87118 47.5358 1.79352 47.4658 1.72904C47.3173 1.59475 47.1225 1.52028 46.9204 1.52051H44.4057C44.2044 1.52059 44.0106 1.59505 43.8629 1.72904C43.7921 1.79288 43.7355 1.87039 43.6967 1.95671C43.658 2.04303 43.6379 2.13628 43.6377 2.23058V31.4325C43.6383 31.5268 43.6585 31.62 43.6971 31.7063C43.7357 31.7927 43.7918 31.8705 43.862 31.9349C44.0107 32.0692 44.2054 32.1439 44.4075 32.1441H46.9213C47.123 32.1433 47.3172 32.0687 47.4658 31.9349C47.5365 31.8709 47.5929 31.7931 47.6315 31.7067C47.6701 31.6202 47.6901 31.5269 47.6902 31.4325V25.5385L52.4543 20.4782L55.6609 25.1798H55.6466L60.155 31.7806C60.2189 31.8946 60.3127 31.9898 60.4267 32.0565C60.5406 32.1231 60.6707 32.1588 60.8034 32.1598H64.0786C64.2805 32.1598 64.4749 32.0847 64.6223 31.9495C64.7185 31.8376 64.7691 31.6947 64.7645 31.5485C64.7599 31.4022 64.7003 31.2627 64.5973 31.1568Z" fill="#D00070"/>
<path d="M94.322 31.3895C93.9493 31.7261 93.5123 31.9868 93.0361 32.1567C92.5599 32.3266 92.054 32.4023 91.5478 32.3793H87.7783V21.8605H91.5478C92.054 21.8375 92.5599 21.9132 93.0361 22.0831C93.5123 22.253 93.9493 22.5137 94.322 22.8503C94.7864 23.4396 95.1224 24.116 95.3091 24.8377C95.4959 25.5594 95.5295 26.311 95.4078 27.0459C95.5295 27.8043 95.4962 28.5788 95.3098 29.3245C95.1234 30.0702 94.7876 30.7721 94.322 31.3895ZM93.2064 24.0026C92.9736 23.761 92.6896 23.5723 92.3744 23.4498C92.0592 23.3273 91.7204 23.2739 91.3819 23.2934H89.4067V30.9464H91.3819C91.7204 30.9658 92.0592 30.9124 92.3744 30.7899C92.6896 30.6674 92.9735 30.4787 93.2064 30.2372C93.7461 29.2627 93.9472 28.1424 93.7792 27.0459C93.7792 25.5981 93.7643 24.6083 93.2064 24.0026Z" fill="#75787B"/>
<path d="M97.9707 32.3792V21.8604H104.831V23.2933H99.5993V26.3663H104.062V27.7846H99.5993V30.9462H104.831V32.3792H97.9707Z" fill="#75787B"/>
<path d="M110.681 32.3792H109.415L105.887 21.8604H107.576L110.048 29.513L112.521 21.8604H114.24L110.681 32.3792Z" fill="#75787B"/>
<path d="M115.869 32.3792V21.8604H122.729V23.2933H117.497V26.3663H121.961V27.7846H117.497V30.9462H122.729V32.3792H115.869Z" fill="#75787B"/>
<path d="M125.112 32.3792V21.8604H126.741V30.9462H131.912V32.3792H125.112Z" fill="#75787B"/>
<path d="M140.22 31.3457C139.462 32.0659 138.448 32.4687 137.393 32.4687C136.337 32.4687 135.323 32.0659 134.566 31.3457C133.511 30.3117 133.525 29.1445 133.525 27.1205C133.525 25.0966 133.511 23.9294 134.566 22.8952C135.323 22.1751 136.337 21.7725 137.393 21.7725C138.448 21.7725 139.462 22.1751 140.22 22.8952C141.275 23.9294 141.245 25.0966 141.245 27.1205C141.245 29.1445 141.275 30.3117 140.22 31.3457ZM138.984 23.8556C138.774 23.6495 138.525 23.486 138.251 23.3745C137.976 23.2629 137.682 23.2055 137.385 23.2055C137.088 23.2055 136.794 23.2629 136.52 23.3745C136.246 23.486 135.997 23.6495 135.787 23.8556C135.259 24.4171 135.154 25.0079 135.154 27.1205C135.154 29.2332 135.259 29.8241 135.787 30.3856C135.997 30.5916 136.246 30.755 136.52 30.8666C136.794 30.9781 137.088 31.0355 137.385 31.0355C137.682 31.0355 137.976 30.9781 138.251 30.8666C138.525 30.755 138.774 30.5916 138.984 30.3856C139.511 29.8241 139.617 29.2332 139.617 27.1205C139.617 25.0079 139.511 24.4171 138.984 23.8556Z" fill="#75787B"/>
<path d="M147.88 28.2434H145.437V32.38H143.809V21.8611H147.88C148.322 21.8377 148.765 21.9028 149.181 22.0526C149.597 22.2024 149.977 22.4336 150.299 22.7322C150.621 23.0309 150.877 23.3906 151.052 23.7895C151.227 24.1884 151.317 24.618 151.317 25.0522C151.317 25.4865 151.227 25.9161 151.052 26.315C150.877 26.7139 150.621 27.0736 150.299 27.3722C149.977 27.6709 149.597 27.9021 149.181 28.0519C148.765 28.2017 148.322 28.2668 147.88 28.2434ZM147.789 23.2941H145.437V26.7956H147.789C148.033 26.8103 148.277 26.7758 148.507 26.6945C148.737 26.6131 148.947 26.4866 149.125 26.3226C149.303 26.1585 149.445 25.9606 149.542 25.7408C149.639 25.5211 149.689 25.2842 149.689 25.0448C149.689 24.8054 149.639 24.5686 149.542 24.3488C149.445 24.1291 149.303 23.9311 149.125 23.7671C148.947 23.6031 148.737 23.4765 148.507 23.3952C148.277 23.3138 148.033 23.2794 147.789 23.2941Z" fill="#75787B"/>
<path d="M153.443 32.3792V21.8604H160.304V23.2933H155.072V26.3663H159.535V27.7846H155.072V30.9462H160.304V32.3792H153.443Z" fill="#75787B"/>
<path d="M168.612 32.3795L166.351 27.9474H164.315V32.3795H162.687V21.8606H166.848C167.278 21.8245 167.711 21.8776 168.119 22.0167C168.527 22.1557 168.901 22.3774 169.215 22.6674C169.529 22.9574 169.778 23.3091 169.944 23.6996C170.111 24.0901 170.191 24.5105 170.18 24.9335C170.206 25.5694 170.007 26.1945 169.617 26.7033C169.227 27.212 168.67 27.5731 168.039 27.7256L170.512 32.3795H168.612ZM166.728 23.2936H164.315V26.5881H166.728C166.96 26.6067 167.194 26.578 167.414 26.5036C167.634 26.4293 167.837 26.311 168.008 26.1562C168.18 26.0015 168.316 25.8135 168.41 25.6044C168.504 25.3952 168.552 25.1692 168.552 24.9408C168.552 24.7124 168.504 24.4865 168.41 24.2773C168.316 24.0681 168.18 23.8802 168.008 23.7254C167.837 23.5707 167.634 23.4524 167.414 23.378C167.194 23.3037 166.96 23.275 166.728 23.2936Z" fill="#75787B"/>
<path d="M175.563 32.4681C174.865 32.5183 174.164 32.4202 173.509 32.1805C172.853 31.9408 172.258 31.5652 171.764 31.0793L172.849 30.0303C173.207 30.3798 173.637 30.6502 174.11 30.8235C174.584 30.9968 175.089 31.0689 175.593 31.0349C176.996 31.0349 177.81 30.444 177.81 29.4246C177.823 29.2234 177.792 29.0218 177.719 28.8332C177.647 28.6447 177.533 28.4735 177.388 28.3313C177.06 28.0544 176.644 27.8977 176.212 27.8881L174.945 27.711C174.194 27.6414 173.484 27.3474 172.909 26.8689C172.641 26.6075 172.432 26.2932 172.297 25.9468C172.162 25.6004 172.103 25.2298 172.125 24.8596C172.125 24.4165 172.221 23.9783 172.407 23.5745C172.593 23.1707 172.865 22.8105 173.205 22.5181C173.545 22.2257 173.944 22.0078 174.377 21.8791C174.81 21.7504 175.266 21.7139 175.714 21.7719C176.323 21.7378 176.933 21.8265 177.506 22.0322C178.08 22.238 178.604 22.5566 179.046 22.9684L178.006 23.9731C177.693 23.6899 177.324 23.4719 176.922 23.3323C176.521 23.1927 176.094 23.1342 175.669 23.1606C174.402 23.1606 173.709 23.8698 173.709 24.8003C173.7 24.9821 173.732 25.1636 173.802 25.332C173.873 25.5004 173.98 25.6518 174.116 25.7756C174.464 26.0442 174.882 26.213 175.322 26.2632L176.543 26.4403C177.278 26.4911 177.979 26.7648 178.549 27.2234C178.846 27.4987 179.078 27.8345 179.229 28.2071C179.38 28.5796 179.447 28.9801 179.423 29.3803C179.423 31.3157 177.81 32.4681 175.563 32.4681Z" fill="#75787B"/>
</g>
<defs>
<clipPath id="clip0_29_25468">
<rect width="180.552" height="33.6114" fill="white" transform="translate(0 0.194336)"/>
</clipPath>
</defs>
</svg>
